<?xml version="1.0" encoding="UTF-8"?>
<!DOCTYPE svg PUBLIC "-//W3C//DTD SVG 1.1//EN" "http://www.w3.org/Graphics/SVG/1.1/DTD/svg11.dtd">
<!-- Creator: CorelDRAW (Оценочная версия) -->
<svg xmlns="http://www.w3.org/2000/svg" xml:space="preserve" width="185.836mm" height="67.0428mm" version="1.1" style="shape-rendering:geometricPrecision; text-rendering:geometricPrecision; image-rendering:optimizeQuality; fill-rule:evenodd; clip-rule:evenodd"
viewBox="0 0 17864.55 6444.85"
 xmlns:xlink="http://www.w3.org/1999/xlink"
 xmlns:xodm="http://www.corel.com/coreldraw/odm/2003">
 <defs>
  <style type="text/css">
   <![CDATA[
    .str2 {stroke:black;stroke-width:0.35;stroke-miterlimit:22.9256}
    .str1 {stroke:black;stroke-width:94.59;stroke-miterlimit:22.9256}
    .str0 {stroke:black;stroke-width:99.87;stroke-miterlimit:22.9256}
    .fil0 {fill:black;fill-rule:nonzero}
   ]]>
  </style>
 </defs>
 <g id="Слой_x0020_1">
  <metadata id="CorelCorpID_0Corel-Layer"/>
  <path class="fil0" d="M6831.7 3027.81c-273.57,28.83 -522.22,109.9 -736.54,240.06 -441.17,268.91 -727.99,704.6 -807.51,1224.47 -17.92,116.92 -17.92,343.73 0,467.67 110.68,770.85 721.75,1369.46 1493.39,1461.41 45.99,5.45 176.93,7.82 346.84,6.24l272.8 -2.34 0 -198.75 0 -198.75 -292.28 -4.69c-293.84,-4.66 -331.26,-7.79 -453.62,-38.96 -452.85,-114.58 -819.19,-479.34 -934.53,-929.06 -38.98,-154.34 -51.45,-356.99 -30.41,-504.3 81.85,-570.54 509.75,-1008.57 1080.29,-1103.67 93.53,-15.58 299.3,-17.92 388.93,-3.89 136.4,21.04 289.15,68.59 402.19,125.49 95.07,47.55 227.58,142.63 310.19,222.14 210.45,202.65 333.61,432.58 388.16,726.42 11.7,60.8 13.26,175.37 15.6,989.88l3.11 922.06 201.86 0 202.66 0 0 -883.1c0,-536.25 -3.12,-915.83 -7.8,-968.04 -37.41,-402.19 -205.76,-762.3 -491.04,-1049.11 -102.1,-102.89 -166.79,-155.89 -286.04,-233.83 -190.97,-123.93 -406.08,-207.32 -645.37,-249.42 -90.4,-15.58 -339.82,-26.49 -420.89,-17.92z"/>
  <path class="fil0" d="M1325.02 3148.67c-156.66,26.5 -324.24,130.95 -411.53,257.99 -62.36,90.41 -71.7,120.81 -495.72,1583.02 -229.92,791.89 -417.77,1443.49 -417.77,1447.38 0,4.69 76.39,7.8 206.55,7.8 188.63,0 206.55,-1.55 213.56,-14.02 3.89,-7.03 184.72,-627.43 402.19,-1377.25 230.7,-795.01 402.96,-1377.24 413.87,-1395.95 84.17,-147.31 314.11,-140.3 392.83,12.46 7.8,14.82 183.17,592.36 389.71,1282.16 243.97,816.83 384.27,1270.47 399.07,1299.31 33.52,63.13 91.19,118.47 160.57,151.99 51.43,25.71 66.24,29.61 130.16,31.94 81.85,3.89 138.75,-9.35 202.65,-45.19 55.34,-31.19 115.35,-95.1 143.42,-151.22 14.04,-28.82 161.34,-515.19 374.9,-1240.06 193.3,-656.26 360.1,-1221.37 371.01,-1255.66 32.74,-109.12 83.4,-163.67 173.03,-186.28 110.67,-28.83 223.7,29.63 264.23,136.41 7.79,18.71 192.5,645.35 411.52,1391.27l398.28 1356.2 210.46 0c191.73,0 209.65,-0.78 207.32,-13.25 -5.46,-33.52 -838.67,-2859.72 -855.04,-2898.68 -38.96,-96.66 -130.93,-212.01 -215.12,-269.68 -56.11,-38.97 -144.96,-80.28 -208.87,-97.44 -80.28,-21.81 -230.72,-23.38 -308.67,-3.11 -187.05,49.11 -349.17,182.39 -424.78,349.97 -11.7,26.49 -174.58,586.9 -361.65,1244.74 -368.67,1294.63 -355.42,1249.41 -360.09,1245.52 -1.58,-1.57 -160.58,-551.06 -353.87,-1219.79 -192.51,-669.54 -359.31,-1236.96 -370.22,-1261.12 -113.81,-257.99 -404.53,-415.45 -682.01,-369.46z"/>
  <path class="fil0 str0" d="M10393.73 3043.22c109.9,0 214.12,20.44 312.19,61.56 97.48,40.88 182.83,97.72 255.61,170.5 72.78,72.78 129.62,158.13 170.51,255.61 41.11,98.08 61.57,202.32 61.57,312.21 0,82.11 -12.66,162.69 -37.88,241.52 -25.03,78.21 -59.63,149.18 -103.99,212.64 -10.91,17 -23.45,34.09 -37.53,51.3 56.39,22.04 109.84,49.45 160.28,82.24 74.3,43.47 142.37,96.16 204.17,157.96 96.05,96.05 170.51,207.62 223.24,334.32l5.2 11.8c52.91,122.16 79.07,255.45 79.07,399.22 0,98.86 -12.37,197.6 -37.01,296.1l-0.04 0.17 -0.03 0.18c-24.96,96.68 -63.99,187.24 -117.05,271.51l-0.02 -0.03c-102.38,167.33 -238.22,291.03 -407.31,369.31l-0.19 0.09 -0.19 0.07c-163.59,74.09 -339.26,110.96 -526.48,110.96l-609.01 -0.02 -49.93 0 0 -321.74 658.94 0c115.94,0 222.4,-18.37 319.87,-54.56l0.41 -0.16c99.46,-35.9 184.62,-90.91 256.12,-165.16 63.16,-65.93 109.64,-141.18 139.78,-226.11l0.32 -0.85c33.35,-88.93 50.05,-182.08 50.05,-279.77 0,-102.98 -19.43,-198.22 -57.91,-286.19l-0.26 -0.61 -0.26 -0.62c-36,-88.59 -87.05,-165.79 -153.25,-231.97 -66.19,-66.21 -143.38,-117.26 -231.97,-153.25l-0.62 -0.26 -0.61 -0.25c-87.98,-38.49 -183.21,-57.92 -286.19,-57.92 -54.96,-0.03 -102.49,-20.5 -136.61,-63.13 -34.71,-43.41 -42.81,-94.85 -26.47,-147.94l0.18 -0.58 0.16 -0.53c16.55,-49.61 50.77,-85.58 99.17,-105.75l1.3 -0.53 1.29 -0.45c89.89,-31.74 160.97,-88.17 214.29,-170.81l0.96 -1.48 1.05 -1.38c54.92,-73.21 83.22,-161.48 83.22,-267.35 0,-67.84 -12.19,-129.13 -35.9,-184.48l-0.17 -0.37 -0.15 -0.39c-24.24,-59.25 -57.64,-109.79 -100.04,-152.2 -94.06,-94.06 -207.06,-140.69 -341.88,-140.69l-1002.87 0c-40.23,0 -71.25,12.68 -96.52,37.38 -28.62,33.92 -39.92,65.19 -39.92,94.63l0 2875.15 -321.73 0 0 -2875.15c0,-127.69 44.61,-235.49 134.42,-319.33 84.1,-90.09 193.53,-134.42 323.76,-134.42l1002.87 0z"/>
  <path class="fil0 str1" d="M12299.43 3048.01l0 2834.06c0,14.23 1.81,31.32 5.84,51.55l1.86 8.85 0.56 2.49 0.29 2.55c2.34,21.02 8.11,40.64 17.35,59.14 9.23,18.43 20.46,34.21 33.55,47.69 7.16,5.4 18.8,10.07 38.99,10.07 19.6,0 42.5,-5.83 69.35,-20.35 20.69,-12.68 41.65,-33.85 61.89,-66.43l1407.98 -2679.11c36.4,-69.48 90.59,-128.09 160.96,-176.07 69.7,-49.54 148.23,-74.44 234.2,-74.44 65.89,0 126.67,14.83 181.23,45.32l0.02 -0.03c50.23,26.79 93.52,63.55 129.76,109.68 36.15,46.01 63.6,99.57 82.78,160.01l3.53 10.98c17.05,55.15 25.4,113.98 25.4,176.21l0 2830.47 -315.43 0 0 -2830.47c0,-31.38 -3.92,-64.6 -12.04,-99.76l-0.15 -0.73c-6.54,-30.48 -20.99,-52.5 -43.42,-68.81l-1.51 -1.12 -1.43 -1.25c-10.44,-8.95 -25.34,-15.1 -48.73,-15.1 -36.45,0.01 -76.38,20.8 -118.45,83.21l-1407.5 2678.26 -0.51 0.99 -0.55 0.92c-52.68,89.87 -113.9,157.49 -185.16,198.21l-0.75 0.43 -0.77 0.41c-68.69,35.98 -142.49,53.98 -220.7,53.98 -68.68,0 -130.46,-14.77 -183.32,-46.47l0 -0.03c-51.76,-29.32 -94.7,-67.07 -128.06,-113.41 -36.23,-46.24 -62.4,-98.87 -78.64,-157.38l-0.1 -0.34 -0.09 -0.3c-15.72,-59.74 -23.63,-119.7 -23.63,-179.84l0 -2834.06 315.39 0z"/>
  <path class="fil0 str1" d="M15361.72 3048.01l0 2834.06c0,14.23 1.81,31.32 5.85,51.55l1.85 8.85 0.56 2.49 0.28 2.55c2.34,21.02 8.13,40.64 17.37,59.14 9.21,18.43 20.43,34.21 33.55,47.69 7.15,5.4 18.78,10.07 38.97,10.07 19.62,0 42.5,-5.83 69.35,-20.35 20.71,-12.68 41.67,-33.85 61.91,-66.43l1407.96 -2679.11c36.41,-69.48 90.6,-128.09 160.97,-176.07 69.72,-49.54 148.22,-74.44 234.21,-74.44 65.9,0 126.66,14.83 181.23,45.32l0.02 -0.03c50.23,26.79 93.53,63.55 129.78,109.68 36.15,46.01 63.6,99.57 82.75,160.01l3.54 10.98c17.05,55.15 25.4,113.98 25.4,176.21l0 2830.47 -315.41 0 0 -2830.47c0,-31.38 -3.93,-64.6 -12.04,-99.76l-0.15 -0.73c-6.54,-30.48 -20.99,-52.5 -43.41,-68.81l-1.52 -1.12 -1.45 -1.25c-10.44,-8.95 -25.33,-15.1 -48.72,-15.1 -36.46,0.01 -76.37,20.8 -118.44,83.21l-1407.5 2678.26 -0.52 0.99 -0.55 0.92c-52.69,89.87 -113.89,157.49 -185.15,198.21l-0.78 0.43 -0.76 0.41c-68.68,35.98 -142.47,53.98 -220.7,53.98 -68.66,0 -130.44,-14.77 -183.32,-46.47l0 -0.03c-51.76,-29.32 -94.7,-67.07 -128.06,-113.41 -36.23,-46.24 -62.4,-98.87 -78.65,-157.38l-0.1 -0.34 -0.07 -0.3c-15.71,-59.74 -23.64,-119.7 -23.64,-179.84l0 -2834.06 315.41 0z"/>
  <path class="fil0 str2" d="M16495.97 608.4c47.19,18.39 92.11,45.8 130.43,78.9 51.46,44.23 99.86,110.34 127.23,173.75 23.49,54.17 39.99,126.56 41.67,181.59 2.68,88.64 -14.44,167 -53.84,247.81 -20.13,41.23 -48.84,81.9 -81.48,114.14 -33.73,33.78 -60.83,55.35 -95.17,76.15 -59.25,35.92 -114.13,56.11 -180.2,66.68 -36.55,5.84 -63.22,7.16 -99.38,5.06 -57.55,-3.34 -110.08,-15.67 -159.82,-37.51 -21.43,-9.47 -35.02,-16.88 -81.67,-44.34 -77.25,-45.76 -107.3,-58.71 -151.79,-65.58 -47.37,-7.4 -98.17,-2.27 -156.98,15.79 -61.49,18.8 -119.85,45.42 -188.85,85.96 -42.5,25.01 -64.94,40.6 -96.53,67.66 -31.43,26.77 -47.36,43.88 -71.56,76.39 -52.75,70.9 -62.23,150.76 -64.43,232.7 -2.18,81.96 2.92,165.99 -20.61,245.25 -10.25,34.51 -22.49,64.19 -41.47,100.36 -12.06,22.64 -17.33,31.04 -35.36,55.1 -32.07,42.74 -60.17,70.97 -101.73,102.04 -76.22,56.64 -142.45,85.25 -231.13,99.36 -90.75,14.59 -183.45,4.03 -265.13,-30.15 -40.39,-16.98 -63.37,-29.48 -97.5,-53.52 -34.12,-24.03 -50.77,-38.8 -82.51,-73.26 -51.11,-55.47 -91.73,-130.79 -111.35,-205.82 -9.85,-37.88 -16.47,-90.54 -16.78,-131.86 -0.29,-61.62 16.5,-136.12 43.32,-192.92 17.58,-36.94 33.9,-60.71 117.74,-172.99 25.55,-34.14 39.48,-56.99 50.93,-84 29.97,-70.19 35.98,-155.55 16.75,-240.07 -27.65,-122.61 -93.14,-259.73 -198.13,-334.28 -34.75,-24.71 -39.88,-27.87 -56.5,-35.02 -35.73,-15.24 -81.34,-26.96 -122.68,-31.47l-8.23 -0.8c-149.14,-13.1 -279.65,-109.41 -342.49,-244.27 -19.21,-41.2 -30.92,-80.17 -38.4,-126.98 -9.18,-57.28 -7.95,-105.09 3.85,-163.61 20.47,-101.52 81.67,-200.09 165.83,-267.35 25.59,-20.68 83.54,-53.83 114.36,-65.65 63.52,-24.48 128.8,-34.53 199,-30.71 76.62,4.21 146.76,28.09 216.92,74.05 213.37,139.43 235.97,399.61 128.8,607.87 -20.82,40.62 -33.41,71.3 -39.53,100.34 -6.11,29.05 -5.76,56.46 -0.75,90.5 10.29,69.56 46.76,153.89 105.26,243.76 70.44,108.26 146.07,179.05 246.63,230.42 29.97,15.49 68.44,30.01 100.72,38.25 101.51,25.96 207.78,26.6 310.6,7.81 47.24,-8.68 65.85,-13.31 103.92,-25.89 121.61,-40.26 214.58,-89.01 274.74,-144 28.84,-26.21 45.94,-46.19 73.65,-85.53 37.08,-52.64 50.59,-81.65 60.96,-129.55 21.65,-100.47 46.86,-161.44 95.64,-230.69 18.4,-26.41 26.34,-36.16 41.36,-51.97 62.78,-66.1 130.26,-106.61 220.05,-132.48 94.65,-27.2 207.16,-21.72 301.66,14.56z"/>
 </g>
</svg>
